<?xml version="1.0" standalone="no"?>
<!DOCTYPE svg PUBLIC "-//W3C//DTD SVG 20010904//EN" "http://www.w3.org/TR/2001/REC-SVG-20010904/DTD/svg10.dtd">
<svg version="1.0" xmlns="http://www.w3.org/2000/svg" width="700pt" height="700pt" viewBox="0 0 700 700" preserveAspectRatio="xMidYMid meet">
    <g transform="translate(0.000000,700.000000) scale(0.100000,-0.100000)" fill="#000000" stroke="none">
        <path d="M3280 6989 c-386 -40 -780 -160 -1125 -344 -674 -359 -1198 -933 -1495
        -1635 -144 -341 -220 -675 -242 -1065 -43 -766 180 -1524 632 -2155 517 -720
        1273 -1198 2130 -1345 252 -43 607 -51 860 -20 1024 127 1922 742 2420 1660
        333 613 445 1337 314 2035 -207 1107 -1007 2007 -2094 2355 -298 95 -559 140
        -900 155 -146 6 -192 6 -500 -1z m570 -224 c639 -76 1212 -339 1680 -771 498
        -460 822 -1069 929 -1744 26 -169 31 -501 10 -680 -122 -1007 -742 -1873 -1664
        -2321 -529 -257 -1163 -359 -1760 -283 -1018 130 -1891 773 -2334 1719 -142
        303 -223 596 -262 944 -22 201 -15 539 15 740 170 1101 946 2016 2001 2356 397
        128 931 170 1385 110z"/>
        <path d="M3313 6100 c-717 -71 -1361 -408 -1813 -947 -146 -174 -283 -396 -374
        -608 -161 -372 -226 -746 -201 -1155 45 -724 355 -1369 877 -1827 550 -483
        1273 -718 1993 -647 894 88 1680 583 2108 1329 390 680 478 1508 239 2250 -305
        943 -1087 1627 -2064 1804 -183 33 -255 39 -463 42 -110 1 -247 -2 -302 -6z
        m582 -235 c858 -88 1589 -576 1950 -1305 251 -507 321 -1097 195 -1655 -180
        -798 -766 -1463 -1535 -1739 -376 -135 -786 -171 -1180 -104 -969 166 -1746
        891 -1985 1853 -57 230 -70 348 -70 625 0 277 13 395 70 625 147 591 493 1090
        989 1428 378 258 786 397 1296 441 107 9 162 8 270 -4z"/>
        <path d="M3425 5224 c-11 -2 -45 -9 -75 -15 -198 -39 -396 -167 -505 -326 -62
        -91 -115 -228 -129 -333 -4 -25 -9 -54 -12 -65 -3 -11 -5 -49 -5 -85 0 -36 2
        -74 5 -85 3 -11 8 -40 12 -65 30 -184 149 -387 299 -510 183 -150 360 -214
        585 -214 225 0 402 64 585 214 150 123 269 326 299 510 4 25 9 54 12 65 3 11 5
        49 5 85 0 36 -2 74 -5 85 -3 11 -8 40 -12 65 -30 184 -149 387 -299 510 -180
        148 -359 213 -575 213 -71 1 -141 0 -185 -4z m330 -219 c187 -41 359 -167 455
        -334 75 -129 94 -204 94 -366 0 -162 -19 -237 -94 -366 -96 -167 -268 -293
        -455 -334 -188 -41 -372 -15 -533 76 -164 93 -293 267 -334 455 -41 188 -15
        372 76 533 93 164 267 293 455 334 95 21 241 21 336 2z"/>
    </g>
</svg> 